<svg width="384" height="512" viewBox="0 0 384 512" fill="none" xmlns="http://www.w3.org/2000/svg">
<path d="M342.597 150.601C355.097 138.101 355.097 117.801 342.597 105.301C330.097 92.8008 309.797 92.8008 297.297 105.301L191.997 210.701L86.5969 105.401C74.0969 92.9008 53.7969 92.9008 41.2969 105.401C28.7969 117.901 28.7969 138.201 41.2969 150.701L146.697 256.001L41.3969 361.401C28.8969 373.901 28.8969 394.201 41.3969 406.701C53.8969 419.201 74.1969 419.201 86.6969 406.701L191.997 301.301L297.397 406.601C309.897 419.101 330.197 419.101 342.697 406.601C355.197 394.101 355.197 373.801 342.697 361.301L237.297 256.001L342.597 150.601Z" fill="#001555"/>
</svg>
